# xmcd
#
# Track frame offsets: 
#        150
#        10505
#        24658
#        36811
#        45830
#        56650
#        60992
#        74441
#        88709
#        109145
#
# Disc length: 1686 seconds
#
# Revision: 1
# Processed by: cddbd v1.5.2PL0 Copyright (c) Steve Scherf et al.
# Submitted via: ExactAudioCopyFreeDBPlugin 1.0
#
DISCID=7506940a
DTITLE=Various Artist - Rare Trax Vol. 79 - Soulful Nuggets - Von Fol
DTITLE=k bis Funk
DYEAR=2013
DGENRE=
TTITLE0=Marion Black - Who Knows
TTITLE1=Commands - No Time for You
TTITLE2=Pretty - Mustache in Your Face
TTITLE3=Shirley Ann Lee - There's a Light
TTITLE4=Shira Small - Eternal Life
TTITLE5=Becky Severson - A Special Path
TTITLE6=Rob Carr - R.N.B. II
TTITLE7=Pisces - Sam
TTITLE8=Willie Wright - I'm So Happy Now
TTITLE9=Love Apple - There's No Answer Without You
EXTD=
EXTT0=
EXTT1=
EXTT2=
EXTT3=
EXTT4=
EXTT5=
EXTT6=
EXTT7=
EXTT8=
EXTT9=
PLAYORDER=
